# xmcd
#
# Track frame offsets:
#	150
#	16141
#	29082
#	46089
#	60550
#	74954
#	88288
#	99360
#	111705
#	124859
#	139526
#	149625
#	159525
#	173244
#	183487
#	192229
#	211355
#	226304
#	238683
#	256130
#	269105
#	280156
#	294249
#	309617
#
# Disc length: 4290 seconds
# Revision: 0
# Processed by: cddbd v1.5.2PL0 Copyright (c) Steve Scherf et al.
# Submitted via: dBpowerAMP V12.0
#
DISCID=7710c018
DTITLE=Various Artist - More Dirty Laundry: The Soul of Black Country, Vol. 2
DYEAR=2008
DGENRE=Soul
TTITLE0=Johnny Adams - Hell Yes I Cheated
TTITLE1=O.B. McClinton - If Loving You Is Wrong
TTITLE2=Eric Mercury - A Gift for You
TTITLE3=Lou Johnson - She Thinks I Still Care
TTITLE4=Margie Joseph - Touch Your Woman
TTITLE5=O.B. McClinton - Talk to My Children's Mama
TTITLE6=Joe Tex - Trying to Win Your Love
TTITLE7=Arthur Alexander - Everyday I Have to Cry
TTITLE8=Vicki Vann - You Must Think My Heart Has Swinging Doors
TTITLE9=Ike and Tina Turner - Don't Believe Nothing
TTITLE10=Clarence "Frogman" Henry - I Told My Pillow
TTITLE11=Joe Tex - King of the Road
TTITLE12=Sammy Davis, Jr. - Smoke! Smoke! Smoke! (That Cigarette)
TTITLE13=Stoney Edwards - Honky Tonk Heaven
TTITLE14=Clyde McPhatter - I'm Movin' On
TTITLE15=Ruth Brown - Tennessee Waltz
TTITLE16=Solomon Burke - He'll Have to Go
TTITLE17=Bobby Womack - Point of No Return
TTITLE18=O.C. Smith - The Son of Hickory Holler's Tramp
TTITLE19=James Brown - Three Hearts in a Triangle
TTITLE20=Junior Parker - Walkin' the Floor Over You
TTITLE21=Joe Simon - Someone to Give My Love To
TTITLE22=Clarence "Gatemouth" Brown - Amos Moses
TTITLE23=André Williams - Pardon Me (I've Got Someone to Kill)
EXTD=
EXTT0=
EXTT1=
EXTT2=
EXTT3=
EXTT4=
EXTT5=
EXTT6=
EXTT7=
EXTT8=
EXTT9=
EXTT10=
EXTT11=
EXTT12=
EXTT13=
EXTT14=
EXTT15=
EXTT16=
EXTT17=
EXTT18=
EXTT19=
EXTT20=
EXTT21=
EXTT22=
EXTT23=
PLAYORDER=
